:FULLY-SPECIFIED
:FORCE-ALL-JOINTS-BE-3DOF
:DEGREES
2752
root -5.559 13.9753 -28.4071 1242 -65.4881 -161.137
lfemur -59.4319 42.7739 -6.2695
ltibia 68.1292 -0 0
lfoot -2.51285 -1.39619 0.00144169
ltoes -31.4241 0 0
rfemur -30.7996 -18.7147 21.6754
rtibia 81.9391 -0 0
rfoot -35.2324 -24.7742 0.000319793
rtoes -14.3493 0 0
lowerback 15.6667 5.79914 0.491115
upperback -4.01752 8.07856 1.4492
thorax -13.4247 3.78607 -0.844322
lowerneck -2.49027 9.60068 2.10698
upperneck 7.69873 12.5515 1.93281
head 2.89222 6.33604 0.677191
lclavicle -6.93634e-14 -1.82882e-14 0
lhumerus 3.65819 10.5334 84.1427
lradius 94.6518 0 0
lwrist -18.716 0 0
lhand -39.7287 388.035 0
lfingers 7.12502 0 0
lthumb -12.7062 -662.371 0
rclavicle -6.93634e-14 -1.82882e-14 0
rhumerus -57.8841 50.9998 -110.268
rradius 114.084 0 0
rwrist -84.7016 0 0
rhand 4.82202 -386.895 0
rfingers 7.12502 0 0
rthumb 30.2002 305.554 0
2753
root -5.56922 13.9653 -28.4141 1242.02 -65.5483 -161.149
lfemur -59.5385 42.8501 -6.32495
ltibia 68.2701 -0 0
lfoot -2.57795 -1.44499 0.00207938
ltoes -31.4525 0 0
rfemur -30.7804 -18.7733 21.6542
rtibia 82.0573 -0 0
rfoot -35.3327 -24.7882 0
rtoes -14.3288 0 0
lowerback 15.6476 5.8154 0.518626
upperback -4.04713 8.10436 1.42758
thorax -13.4402 3.79446 -0.889647
lowerneck -2.49877 9.58422 2.14014
upperneck 7.73747 12.5273 1.92461
head 2.90994 6.32468 0.670926
lclavicle -9.44724e-14 -2.46493e-14 0
lhumerus 3.65869 10.4463 84.1698
lradius 94.6381 0 0
lwrist -18.5064 0 0
lhand -39.6814 387.875 0
lfingers 7.12502 0 0
lthumb -12.6607 -662.529 0
rclavicle -9.44724e-14 -2.46493e-14 0
rhumerus -57.9022 50.8844 -110.283
rradius 114.08 0 0
rwrist -84.5578 0 0
rhand 4.80391 -386.857 0
rfingers 7.12502 0 0
rthumb 30.1829 305.589 0
2754
root -5.57894 13.9571 -28.4224 1241.95 -65.592 -161.081
lfemur -59.6454 42.9263 -6.38066
ltibia 68.411 -0 0
lfoot -2.64305 -1.49379 0.00266164
ltoes -31.4809 0 0
rfemur -30.7613 -18.832 21.633
rtibia 82.1755 -0 0
rfoot -35.4469 -24.8058 0.000439527
rtoes -14.3083 0 0
lowerback 15.6284 5.81379 0.527852
upperback -4.06573 8.10608 1.4406
thorax -13.4512 3.79499 -0.879979
lowerneck -2.49923 9.58805 2.13763
upperneck 7.77546 12.5307 1.93944
head 2.92176 6.32675 0.677531
lclavicle -6.56859e-14 -8.74653e-15 0
lhumerus 3.62722 10.4446 84.2076
lradius 94.6367 0 0
lwrist -18.5372 0 0
lhand -39.6909 387.948 0
lfingers 7.12502 0 0
lthumb -12.6698 -662.456 0
rclavicle -6.56859e-14 -8.74653e-15 0
rhumerus -57.9311 50.879 -110.277
rradius 114.112 0 0
rwrist -84.502 0 0
rhand 4.81626 -386.923 0
rfingers 7.12502 0 0
rthumb 30.1947 305.525 0
2755
root -5.58663 13.9494 -28.4325 1241.89 -65.6676 -160.998
lfemur -59.7525 43.0023 -6.43663
ltibia 68.552 -0 0
lfoot -2.70815 -1.54259 0.00318845
ltoes -31.5093 0 0
rfemur -30.7421 -18.8906 21.6118
rtibia 82.2937 -0 0
rfoot -35.5612 -24.8235 0.000843911
rtoes -14.2877 0 0
lowerback 15.597 5.79832 0.516889
upperback -4.07654 8.0867 1.47202
thorax -13.4517 3.78869 -0.831747
lowerneck -2.53522 9.60926 2.05311
upperneck 7.81642 12.5581 1.99674
head 2.93229 6.34013 0.712642
lclavicle -4.31735e-14 7.95139e-16 0
lhumerus 3.61514 10.4414 84.232
lradius 94.6227 0 0
lwrist -18.5991 0 0
lhand -39.6714 387.766 0
lfingers 7.12502 0 0
lthumb -12.651 -662.637 0
rclavicle -4.31735e-14 7.95139e-16 0
rhumerus -57.9281 50.8938 -110.232
rradius 114.129 0 0
rwrist -84.4323 0 0
rhand 4.87445 -386.951 0
rfingers 7.12502 0 0
rthumb 30.2502 305.507 0
2756
root -5.59802 13.9368 -28.4377 1241.85 -65.6691 -160.959
lfemur -59.8598 43.0783 -6.49287
ltibia 68.6929 -0 0
lfoot -2.77325 -1.5914 0.00365982
ltoes -31.5377 0 0
rfemur -30.7229 -18.9492 21.5905
rtibia 82.4119 -0 0
rfoot -35.6754 -24.8411 0.00121315
rtoes -14.2672 0 0
lowerback 15.5762 5.80202 0.55795
upperback -4.09551 8.10041 1.4718
thorax -13.4552 3.7917 -0.856878
lowerneck -2.50017 9.59224 2.10375
upperneck 7.7684 12.538 1.94791
head 2.9165 6.32991 0.685279
lclavicle 1.00573e-13 1.35174e-14 0
lhumerus 3.60133 10.4532 84.2214
lradius 94.6119 0 0
lwrist -18.7536 0 0
lhand -39.6696 387.951 0
lfingers 7.12502 0 0
lthumb -12.6493 -662.452 0
rclavicle 1.00573e-13 1.35174e-14 0
rhumerus -57.9193 50.8193 -110.264
rradius 114.09 0 0
rwrist -84.3908 0 0
rhand 4.68751 -386.699 0
rfingers 7.12502 0 0
rthumb 30.0719 305.727 0
2757
root -5.60693 13.9252 -28.4443 1241.9 -65.7222 -161.03
lfemur -59.9673 43.1543 -6.54937
ltibia 68.8339 -0 0
lfoot -2.83835 -1.6402 0.00407574
ltoes -31.5661 0 0
rfemur -30.7298 -18.947 21.5584
rtibia 82.5301 -0 0
rfoot -35.7897 -24.8587 0.00154723
rtoes -14.2467 0 0
lowerback 15.5737 5.7869 0.515582
upperback -4.10885 8.07194 1.47169
thorax -13.4754 3.78146 -0.826939
lowerneck -2.50216 9.60982 2.07436
upperneck 7.75753 12.5594 2.00235
head 2.90717 6.34156 0.706783
lclavicle 3.81915e-14 1.66979e-14 0
lhumerus 3.60257 10.5057 84.2309
lradius 94.5733 0 0
lwrist -18.9976 0 0
lhand -39.6775 387.868 0
lfingers 7.12502 0 0
lthumb -12.6569 -662.536 0
rclavicle 3.81915e-14 1.66979e-14 0
rhumerus -57.9147 50.8632 -110.207
rradius 114.117 0 0
rwrist -84.4843 0 0
rhand 4.74033 -386.85 0
rfingers 7.12502 0 0
rthumb 30.1223 305.584 0
2758
root -5.61596 13.9148 -28.4525 1241.83 -65.724 -160.962
lfemur -60.0751 43.2301 -6.60614
ltibia 68.9748 -0 0
lfoot -2.90346 -1.689 0.00443621
ltoes -31.5945 0 0
rfemur -30.7366 -18.9448 21.5263
rtibia 82.6483 -0 0
rfoot -35.9039 -24.8764 0.00184616
rtoes -14.2261 0 0
lowerback 15.5596 5.79092 0.528375
upperback -4.12746 8.08127 1.47833
thorax -13.4879 3.78483 -0.828776
lowerneck -2.48614 9.60261 2.1363
upperneck 7.74773 12.5489 1.97571
head 2.90719 6.33711 0.687546
lclavicle -4.13845e-14 -8.34896e-15 0
lhumerus 3.57939 10.4749 84.1733
lradius 94.5631 0 0
lwrist -19.1992 0 0
lhand -39.8068 387.812 0
lfingers 7.12502 0 0
lthumb -12.7815 -662.6 0
rclavicle -4.13845e-14 -8.34896e-15 0
rhumerus -57.9179 50.784 -110.241
rradius 114.085 0 0
rwrist -84.5346 0 0
rhand 4.78759 -386.765 0
rfingers 7.12502 0 0
rthumb 30.1673 305.678 0
2759
root -5.62471 13.9042 -28.4589 1241.98 -65.7491 -161.132
lfemur -60.1831 43.3059 -6.66317
ltibia 69.1158 -0 0
lfoot -2.96856 -1.73781 0.00474122
ltoes -31.6229 0 0
rfemur -30.7435 -18.9426 21.4942
rtibia 82.7666 -0 0
rfoot -36.0182 -24.894 0.00210993
rtoes -14.2056 0 0
lowerback 15.5549 5.81651 0.482533
upperback -4.14211 8.10385 1.45279
thorax -13.5048 3.79747 -0.838371
lowerneck -2.49243 9.5854 2.15556
upperneck 7.74069 12.527 1.94952
head 2.90917 6.32599 0.675966
lclavicle -1.12363e-13 -4.92986e-14 0
lhumerus 3.58875 10.4167 84.1952
lradius 94.5882 0 0
lwrist -19.3202 0 0
lhand -39.7416 387.824 0
lfingers 7.12502 0 0
lthumb -12.7187 -662.583 0
rclavicle -1.12363e-13 -4.92986e-14 0
rhumerus -57.9131 50.6929 -110.235
rradius 114.051 0 0
rwrist -84.567 0 0
rhand 4.82794 -386.656 0
rfingers 7.12502 0 0
rthumb 30.2058 305.794 0
2760
root -5.63358 13.8944 -28.467 1242.09 -65.7492 -161.239
lfemur -60.2914 43.3816 -6.72047
ltibia 69.2567 -0 0
lfoot -3.03366 -1.78662 0.00499078
ltoes -31.6513 0 0
rfemur -30.7503 -18.9404 21.4621
rtibia 82.8848 -0 0
rfoot -36.1324 -24.9116 0.00233854
rtoes -14.1851 0 0
lowerback 15.5173 5.82817 0.417453
upperback -4.1509 8.10888 1.47607
thorax -13.506 3.80667 -0.775469
lowerneck -2.48966 9.58653 2.05974
upperneck 7.72978 12.5333 1.96381
head 2.8971 6.32711 0.694436
lclavicle 3.35449e-14 1.03368e-14 0
lhumerus 3.56819 10.4651 84.2042
lradius 94.6435 0 0
lwrist -19.3646 0 0
lhand -39.738 387.605 0
lfingers 7.12502 0 0
lthumb -12.7152 -662.802 0
rclavicle 3.35449e-14 1.03368e-14 0
rhumerus -57.9745 50.7538 -110.203
rradius 114.094 0 0
rwrist -84.6419 0 0
rhand 5.02212 -386.888 0
rfingers 7.12502 0 0
rthumb 30.3911 305.596 0
2761
root -5.64397 13.8798 -28.474 1242.22 -65.7178 -161.377
lfemur -60.3999 43.4572 -6.77803
ltibia 69.3976 -0 0
lfoot -3.09877 -1.83542 0.00518489
ltoes -31.6797 0 0
rfemur -30.7572 -18.9382 21.43
rtibia 83.003 -0 0
rfoot -36.2467 -24.9293 0.00253198
rtoes -14.1645 0 0
lowerback 15.4689 5.83742 0.355312
upperback -4.15577 8.10918 1.4845
thorax -13.4931 3.81318 -0.727714
lowerneck -2.52145 9.59991 2.05416
upperneck 7.77646 12.5514 1.94706
head 2.91972 6.33554 0.694602
lclavicle 1.11618e-13 4.77083e-15 0
lhumerus 3.51547 10.4965 84.1072
lradius 94.7168 0 0
lwrist -19.2509 0 0
lhand -39.7596 387.7 0
lfingers 7.12502 0 0
lthumb -12.736 -662.708 0
rclavicle 1.11618e-13 4.77083e-15 0
rhumerus -57.9971 50.7783 -110.262
rradius 114.064 0 0
rwrist -84.6158 0 0
rhand 5.18387 -386.953 0
rfingers 7.12502 0 0
rthumb 30.5453 305.56 0
2762
root -5.65278 13.871 -28.483 1242.4 -65.6866 -161.571
lfemur -60.4626 43.5141 -6.75533
ltibia 69.5386 -0 0
lfoot -3.16387 -1.88423 0.00532354
ltoes -31.7081 0 0
rfemur -30.764 -18.9361 21.3979
rtibia 83.1212 -0 0
rfoot -36.361 -24.9469 0.00269026
rtoes -14.144 0 0
lowerback 15.4328 5.87196 0.267487
upperback -4.16304 8.13682 1.47718
thorax -13.4918 3.83334 -0.692101
lowerneck -2.52952 9.57961 2.09701
upperneck 7.79075 12.5265 1.88209
head 2.9338 6.32226 0.668448
lclavicle 1.11307e-13 1.07344e-14 0
lhumerus 3.49006 10.462 84.0428
lradius 94.7498 0 0
lwrist -19.149 0 0
lhand -39.7411 387.719 0
lfingers 7.12502 0 0
lthumb -12.7182 -662.689 0
rclavicle 1.11307e-13 1.07344e-14 0
rhumerus -58.0667 50.8026 -110.324
rradius 114.078 0 0
rwrist -84.5888 0 0
rhand 5.1684 -386.697 0
rfingers 7.12502 0 0
rthumb 30.5306 305.813 0
